<svg width="513" height="378" viewBox="0 0 513 378" fill="none" xmlns="http://www.w3.org/2000/svg">
<path d="M230.857 314.302L240.928 285.945L246.581 266.635C246.581 266.635 249.398 255.812 249.408 250.282C249.421 242.875 247.906 235.444 245.698 228.363C242.427 217.87 237.264 207.974 231.74 198.441C226.875 190.043 221.099 182.149 214.956 174.607C208.385 166.54 201.4 158.719 193.578 151.818C182.727 142.243 170.693 133.977 158.419 126.245C149.761 120.79 140.687 115.944 131.388 111.632C123.018 107.75 114.366 104.435 105.593 101.542C93.3731 97.5114 80.7172 94.6558 68.0933 92.1039C57.0874 89.8791 46.0578 88.4005 34.9222 86.9284C29.9774 86.2747 24.9841 85.9256 20.0814 85.0148C13.8213 83.8519 1.53027 80.4917 1.53027 80.4917C1.53027 80.4917 7.37726 98.3062 10.1171 107.269C12.608 115.418 14.7643 123.663 17.2545 131.812C19.4254 138.915 21.7013 145.989 24.0566 153.035C28.3394 165.849 32.7621 178.619 37.383 191.318C40.6479 200.29 43.6284 209.387 47.5546 218.099C50.6477 224.962 54.2545 231.602 58.0669 238.105C61.1787 243.412 64.7042 248.583 68.3583 253.544C73.4937 260.517 78.7597 267.36 84.7451 273.594C91.3913 280.516 98.956 287.135 106.786 292.73C113.383 297.445 120.253 301.371 127.501 304.734C133.113 307.337 139.057 309.216 144.992 310.996C151.086 312.825 157.417 314.389 163.72 315.302C170.778 316.325 178.33 316.614 185.407 316.824C195.002 317.109 204.627 317.06 214.205 317.259C216.404 317.305 220.256 317.433 220.256 317.433" stroke="#2F4F3E" stroke-width="2"/>
<path d="M268.136 377.277C268.136 377.277 266.743 372.335 265.751 369.971C263.034 363.499 259.574 357.342 256.033 351.269C252.743 345.626 249.047 340.219 245.344 334.83C238.331 324.62 230.996 314.624 223.525 304.733C212.677 290.373 201.693 276.097 190.133 262.286C180.471 250.743 170.415 239.515 160.098 228.536C149.251 216.993 137.796 206.019 126.617 194.787C117.975 186.104 109.565 177.187 100.646 168.779C93.1158 161.68 85.1089 155.088 77.4129 148.164C67.3374 139.099 57.5048 129.774 47.3778 120.765C37.0987 111.62 16.1943 93.7129 16.1943 93.7129" stroke="#2F4F3E" stroke-width="2"/>
<path d="M196.935 266.809C196.935 266.809 201.184 256.685 202.058 251.326C203.306 243.683 202.684 235.825 202.147 228.102C201.687 221.499 200.647 214.931 199.32 208.444C198.496 204.417 196.14 196.527 196.14 196.527" stroke="#2F4F3E" stroke-width="2"/>
<path d="M175.469 240.366C175.469 240.366 179.914 224.036 180.592 215.315C181.393 205.02 179.246 197.597 176.882 189.742C174.104 180.515 165.31 163.212 165.31 163.212" stroke="#2F4F3E" stroke-width="2"/>
<path d="M145.322 205.833C145.322 205.833 145.711 189.416 145.197 181.231C144.762 174.307 144.552 167.257 142.698 160.565C140.819 153.78 137.634 147.35 134.078 141.252C131.644 137.076 125.458 129.565 125.458 129.565" stroke="#2F4F3E" stroke-width="2"/>
<path d="M119.087 176.679C119.087 176.679 118.133 167.181 117.088 162.533C115.46 155.289 113.474 148.29 111.091 141.252C108.88 134.718 107.111 127.62 103.346 121.816C100.35 117.197 91.4775 110.252 91.4775 110.252" stroke="#2F4F3E" stroke-width="2"/>
<path d="M87.4794 144.327C87.4794 144.327 83.7923 135.284 81.6078 130.918C78.8479 125.402 76.4335 119.57 72.4879 114.804C68.4585 109.936 57.9961 102.502 57.9961 102.502" stroke="#2F4F3E" stroke-width="2"/>
<path d="M188.673 282.224C188.673 282.224 178.945 283.376 174.056 283.454C166.217 283.578 158.355 283.131 150.569 282.224C143.504 281.4 129.581 278.41 129.581 278.41" stroke="#2F4F3E" stroke-width="2"/>
<path d="M170.932 258.359C170.932 258.359 157.369 259.666 150.569 259.589C143.131 259.506 135.67 258.939 128.331 257.744C120.33 256.441 104.72 251.962 104.72 251.962" stroke="#2F4F3E" stroke-width="2"/>
<path d="M137.452 228.713C137.452 228.713 125.138 228.002 118.962 227.237C112.894 226.486 106.675 225.545 100.722 224.162C96.4009 223.158 88.2295 219.61 88.2295 219.61" stroke="#2F4F3E" stroke-width="2"/>
<path d="M113.215 194.516C113.215 194.516 106.221 196.71 102.596 197.099C94.3551 197.984 85.8834 197.984 77.7349 196.484C72.0379 195.436 61.3691 190.703 61.3691 190.703" stroke="#2F4F3E" stroke-width="2"/>
<path d="M86.1054 167.453C86.1054 167.453 72.2435 165.349 65.7419 162.901C56.9314 159.585 41.0059 149.37 41.0059 149.37" stroke="#2F4F3E" stroke-width="2"/>
<path d="M264.606 277.843L253.78 244.328L247.702 221.504C247.702 221.504 244.673 208.711 244.663 202.176C244.649 193.421 246.278 184.637 248.651 176.268C252.168 163.866 257.718 152.169 263.656 140.901C268.886 130.976 275.095 121.645 281.699 112.731C288.764 103.197 296.273 93.9523 304.681 85.7954C316.346 74.4791 329.283 64.7081 342.477 55.5695C351.785 49.1223 361.539 43.3943 371.537 38.2975C380.535 33.71 389.835 29.7914 399.266 26.3716C412.403 21.6081 426.008 18.2329 439.579 15.2168C451.411 12.5872 463.268 10.8395 475.239 9.0996C480.555 8.32697 485.923 7.91429 491.193 6.8378C497.923 5.46327 511.136 1.4917 511.136 1.4917C511.136 1.4917 504.85 22.5476 501.905 33.1414C499.227 42.7725 496.909 52.5179 494.232 62.1493C491.898 70.5457 489.452 78.9059 486.92 87.2348C482.315 102.38 477.561 117.473 472.593 132.482C469.084 143.087 465.88 153.84 461.659 164.136C458.334 172.248 454.456 180.097 450.358 187.782C447.013 194.056 443.223 200.167 439.294 206.031C433.774 214.272 428.113 222.361 421.678 229.729C414.534 237.91 406.401 245.734 397.984 252.347C390.892 257.919 383.507 262.56 375.715 266.534C369.682 269.612 363.292 271.832 356.912 273.937C350.361 276.098 343.555 277.946 336.779 279.026C329.191 280.235 321.073 280.576 313.465 280.825C303.15 281.162 292.803 281.103 282.507 281.339C280.143 281.393 276.001 281.545 276.001 281.545" stroke="#2F4F3E" stroke-width="2"/>
<path d="M224.531 352.277C224.531 352.277 226.028 346.436 227.095 343.641C230.015 335.993 233.735 328.715 237.541 321.537C241.078 314.868 245.052 308.477 249.032 302.106C256.572 290.039 264.457 278.224 272.488 266.534C284.15 249.561 295.958 232.687 308.385 216.363C318.771 202.72 329.582 189.45 340.673 176.473C352.334 162.83 364.648 149.858 376.665 136.583C385.956 126.32 394.997 115.781 404.585 105.843C412.68 97.4529 421.288 89.6613 429.561 81.4774C440.392 70.763 450.963 59.7408 461.849 49.0924C472.9 38.284 495.372 17.1187 495.372 17.1187" stroke="#2F4F3E" stroke-width="2"/>
<path d="M301.072 221.709C301.072 221.709 296.505 209.743 295.564 203.409C294.223 194.375 294.891 185.088 295.469 175.959C295.963 168.155 297.081 160.392 298.508 152.724C299.394 147.965 301.927 138.639 301.927 138.639" stroke="#2F4F3E" stroke-width="2"/>
<path d="M324.149 190.455C324.149 190.455 319.37 171.154 318.641 160.846C317.78 148.678 320.088 139.905 322.63 130.62C325.616 119.713 335.07 99.2632 335.07 99.2632" stroke="#2F4F3E" stroke-width="2"/>
<path d="M356.557 149.639C356.557 149.639 356.139 130.235 356.692 120.56C357.159 112.376 357.384 104.045 359.378 96.134C361.398 88.1156 364.822 80.5152 368.644 73.3071C371.261 68.372 377.911 59.4946 377.911 59.4946" stroke="#2F4F3E" stroke-width="2"/>
<path d="M384.76 115.18C384.76 115.18 385.786 103.954 386.909 98.4601C388.659 89.8982 390.794 81.6259 393.355 73.3069C395.733 65.5841 397.634 57.1948 401.682 50.3346C404.903 44.8761 414.44 36.6675 414.44 36.6675" stroke="#2F4F3E" stroke-width="2"/>
<path d="M418.738 76.9415C418.738 76.9415 422.702 66.254 425.051 61.0935C428.018 54.5736 430.613 47.6805 434.855 42.0468C439.186 36.2933 450.434 27.5073 450.434 27.5073" stroke="#2F4F3E" stroke-width="2"/>
<path d="M309.954 239.929C309.954 239.929 320.411 241.291 325.667 241.383C334.094 241.529 342.546 241.001 350.916 239.929C358.511 238.956 373.479 235.421 373.479 235.421" stroke="#2F4F3E" stroke-width="2"/>
<path d="M329.025 211.722C329.025 211.722 343.606 213.266 350.916 213.176C358.913 213.077 366.933 212.408 374.822 210.995C383.424 209.455 400.205 204.162 400.205 204.162" stroke="#2F4F3E" stroke-width="2"/>
<path d="M365.018 176.682C365.018 176.682 378.255 175.841 384.894 174.937C391.418 174.049 398.103 172.937 404.502 171.302C409.148 170.115 417.933 165.923 417.933 165.923" stroke="#2F4F3E" stroke-width="2"/>
<path d="M391.073 136.263C391.073 136.263 398.592 138.856 402.488 139.316C411.347 140.361 420.454 140.362 429.214 138.589C435.339 137.349 446.808 131.755 446.808 131.755" stroke="#2F4F3E" stroke-width="2"/>
<path d="M420.216 104.275C420.216 104.275 435.118 101.788 442.108 98.8957C451.579 94.9757 468.699 82.9023 468.699 82.9023" stroke="#2F4F3E" stroke-width="2"/>
</svg>
