<!DOCTYPE svg PUBLIC "-//W3C//DTD SVG 1.1//EN" "http://www.w3.org/Graphics/SVG/1.1/DTD/svg11.dtd">
<!-- Uploaded to: SVG Repo, www.svgrepo.com, Transformed by: SVG Repo Mixer Tools -->
<svg version="1.1" id="Icons" xmlns="http://www.w3.org/2000/svg" xmlns:xlink="http://www.w3.org/1999/xlink" viewBox="0 0 32 32" xml:space="preserve" width="72px" height="72px" fill="#FFa6D3">
<g id="SVGRepo_bgCarrier" stroke-width="0"/>
<g id="SVGRepo_tracerCarrier" stroke-linecap="round" stroke-linejoin="round"/>
<g id="SVGRepo_iconCarrier"> <style type="text/css"> .st0{fill:none;stroke:#FFa6D3;stroke-width:3.2;stroke-linecap:round;stroke-linejoin:round;stroke-miterlimit:10;} </style> <path class="st0" d="M22.9,7.5C22.2,6.2,20.3,6,18.6,7c-0.1-2.2-1.2-4-2.6-4c-1.3,0-2.4,1.7-2.5,3.9C11.7,6,9.9,6.2,9.3,7.5 C9.2,7.7,9.2,7.8,9.1,8c1.6,2.4,4.1,4,6.9,4c0.1,0,0.1,0,0.2,0c2.8-0.1,5.3-1.7,6.8-4.2C23,7.7,22.9,7.6,22.9,7.5z"/> <path class="st0" d="M10.6,9.7C7.3,9.8,4,11,4,17.4C4,23.8,9.4,29,16,29s12-5.2,12-11.6c0-6.4-3.3-7.7-6.6-7.7"/> </g>
</svg>